<svg width="1728" height="836" viewBox="0 0 1728 836" fill="none" xmlns="http://www.w3.org/2000/svg">
<g clip-path="url(#clip0_3424_5300)">
<rect width="1728" height="836" fill="#1A1A1A"/>
<g clip-path="url(#clip1_3424_5300)">
<path d="M225.09 756.292L225.09 742.956L211.754 742.956L211.754 729.62L198.418 729.62L198.418 716.283L225.09 716.283L225.09 702.947L211.754 702.947L211.754 689.611L198.418 689.611L198.418 676.275L185.082 676.275L185.082 742.956L171.746 742.956L171.746 729.619L158.41 729.619L158.41 716.283L145.074 716.283L145.074 756.292L225.09 756.292Z" fill="url(#paint0_linear_3424_5300)"/>
<path d="M145.067 836.315L145.067 822.979L131.731 822.979L131.731 809.643L118.395 809.643L118.395 796.307L105.059 796.307L105.059 836.315L145.067 836.315Z" fill="url(#paint1_linear_3424_5300)"/>
<path d="M626.586 796.307L626.586 782.971L613.25 782.971L613.25 769.635L599.914 769.635L599.914 756.299L586.578 756.299L586.578 782.971L573.242 782.971L573.242 769.635L559.906 769.635L559.906 756.299L586.578 756.299L586.578 742.963L573.242 742.963L573.242 729.627L559.906 729.627L559.906 716.291L546.57 716.291L546.57 782.971L533.234 782.971L533.234 769.635L519.898 769.635L519.898 756.299L506.561 756.299L506.561 782.971L493.225 782.971L493.225 769.635L479.889 769.635L479.889 756.299L506.561 756.299L506.561 742.963L493.225 742.963L493.225 729.627L479.889 729.627L479.889 716.291L466.553 716.291L466.553 782.971L453.217 782.971L453.217 769.635L439.881 769.635L439.881 756.299L426.545 756.299L426.545 782.971L413.209 782.971L413.209 769.635L399.873 769.635L399.873 756.299L386.537 756.299L386.537 796.307L426.545 796.307L426.545 862.987L413.209 862.987L413.209 849.651L399.873 849.651L399.873 836.315L386.537 836.315L386.537 862.987L373.201 862.987L373.201 849.651L359.865 849.651L359.865 836.315L346.529 836.315L346.529 943.013L333.193 943.013L333.193 929.677L319.857 929.677L319.857 916.341L306.521 916.341L306.521 943.013L293.185 943.013L293.185 929.677L279.849 929.677L279.849 916.341L306.521 916.341L306.521 903.005L293.185 903.005L293.185 889.669L279.849 889.669L279.849 876.333L306.521 876.333L306.521 862.997L293.185 862.997L293.185 849.661L279.849 849.661L279.849 836.325L346.529 836.325L346.529 822.989L333.193 822.989L333.193 809.653L319.857 809.653L319.857 796.317L346.529 796.317L346.529 782.981L333.193 782.981L333.193 769.645L319.857 769.645L319.857 756.309L386.537 756.309L386.537 742.973L373.201 742.973L373.201 729.637L359.865 729.637L359.865 716.301L346.529 716.301L346.529 742.973L333.193 742.973L333.193 729.637L319.857 729.637L319.857 716.301L306.521 716.301L306.521 782.981L293.185 782.981L293.185 769.645L279.849 769.645L279.849 756.309L266.513 756.309L266.513 822.989L253.177 822.989L253.177 809.653L239.841 809.653L239.841 796.317L226.505 796.317L226.505 862.997L213.169 862.997L213.169 849.661L199.833 849.661L199.833 836.325L186.497 836.325L186.497 862.997L173.161 862.997L173.161 849.661L159.825 849.661L159.825 836.325L146.489 836.325L146.489 903.005L133.153 903.005L133.153 889.669L119.817 889.669L119.817 876.333L106.481 876.333L106.481 903.005L93.1447 903.005L93.1447 889.669L79.8087 889.669L79.8087 876.333L106.481 876.333L106.481 862.997L93.1447 862.997L93.1447 849.661L79.8087 849.661L79.8087 836.325L66.4727 836.325L66.4726 862.997L53.1366 862.997L53.1366 849.661L39.8006 849.661L39.8006 836.325L26.4646 836.325L26.4646 862.997L13.1286 862.997L13.1286 849.661L-0.207467 849.661L-0.207464 836.325L26.4646 836.325L26.4646 822.989L13.1286 822.989L13.1286 809.653L-0.20746 809.653L-0.207457 796.317L-13.5435 796.317L-13.5435 822.989L-26.8795 822.989L-26.8795 809.653L-40.2155 809.653L-40.2155 796.317L-13.5435 796.317L-13.5435 782.981L-26.8795 782.981L-26.8795 769.645L-40.2155 769.645L-40.2155 756.309L26.4646 756.309L26.4646 796.317L106.481 796.317L106.481 782.981L93.1447 782.981L93.1447 769.645L79.8087 769.645L79.8087 756.309L106.481 756.309L106.481 742.973L93.1447 742.973L93.1447 729.637L79.8087 729.637L79.8087 716.301L66.4727 716.301L66.4727 742.973L53.1366 742.973L53.1366 729.637L39.8006 729.637L39.8006 716.301L26.4646 716.301L26.4646 742.973L13.1286 742.973L13.1286 729.637L-0.207446 729.637L-0.207443 716.301L-13.5435 716.301L-13.5435 742.973L-26.8795 742.973L-26.8795 729.637L-40.2155 729.637L-40.2155 716.301L-53.5515 716.301L-53.5515 782.981L-66.8876 782.981L-66.8876 769.645L-80.2236 769.645L-80.2236 756.309L-93.5977 756.309L-93.5977 796.317L-53.5896 796.317L-53.5896 836.325L-13.5815 836.325L-13.5815 903.005L-26.9176 903.005L-26.9176 889.669L-40.2536 889.669L-40.2536 876.333L-53.5896 876.333L-53.5896 903.005L-66.9256 903.005L-66.9256 889.669L-80.2617 889.669L-80.2617 876.333L-53.5896 876.333L-53.5896 862.997L-66.9256 862.997L-66.9256 849.661L-80.2617 849.661L-80.2617 836.325L-93.5977 836.325L-93.5977 1009.7L626.586 1009.7L626.586 943.023L613.25 943.023L613.25 929.687L599.914 929.687L599.914 916.351L626.586 916.351L626.586 903.014L613.25 903.014L613.25 889.678L599.914 889.678L599.914 876.342L626.586 876.342L626.586 863.006L613.25 863.006L613.25 849.67L599.914 849.67L599.914 836.334L626.586 836.334L626.586 822.998L613.25 822.998L613.25 809.662L599.914 809.662L599.914 796.326L626.586 796.326L626.586 796.307ZM66.4441 756.29L66.4441 782.962L53.1081 782.962L53.1081 769.626L39.7721 769.626L39.7721 756.29L66.4441 756.29ZM466.544 796.298L466.544 822.97L453.208 822.97L453.208 809.634L439.872 809.634L439.872 796.298L466.544 796.298ZM399.864 916.331L426.536 916.331L426.536 943.004L413.2 943.004L413.2 929.668L399.864 929.668L399.864 916.331ZM479.88 929.668L479.88 916.331L506.552 916.331L506.552 943.004L493.216 943.004L493.216 929.668L479.88 929.668ZM466.544 902.995L453.208 902.995L453.208 889.659L439.872 889.659L439.872 876.323L466.544 876.323L466.544 902.995ZM466.544 916.331L466.544 943.004L453.208 943.004L453.208 929.668L439.872 929.668L439.872 916.331L466.544 916.331ZM546.56 943.004L533.224 943.004L533.224 929.668L519.888 929.668L519.888 916.331L546.56 916.331L546.56 943.004ZM546.56 902.995L533.224 902.995L533.224 889.659L519.888 889.659L519.888 876.323L546.56 876.323L546.56 902.995ZM506.552 902.995L493.216 902.995L493.216 889.659L479.88 889.659L479.88 876.323L506.552 876.323L506.552 902.995ZM466.544 836.315L466.544 862.987L453.208 862.987L453.208 849.651L439.872 849.651L439.872 836.315L466.544 836.315ZM426.536 876.323L426.536 902.995L413.2 902.995L413.2 889.659L399.864 889.659L399.864 876.323L426.536 876.323ZM386.528 876.323L386.528 902.995L373.192 902.995L373.192 889.659L359.856 889.659L359.856 876.323L386.528 876.323ZM386.528 916.331L386.528 943.004L373.192 943.004L373.192 929.668L359.856 929.667L359.856 916.331L386.528 916.331ZM-0.236012 916.331L26.436 916.331L26.436 943.003L13.1 943.003L13.1 929.667L-0.236014 929.667L-0.236012 916.331ZM39.7721 929.667L39.7721 916.331L66.4441 916.331L66.4441 943.003L53.1081 943.003L53.1081 929.667L39.7721 929.667ZM159.806 916.331L186.478 916.331L186.478 943.003L173.142 943.003L173.142 929.667L159.806 929.667L159.806 916.331ZM199.814 929.667L199.814 916.331L226.486 916.331L226.486 943.003L213.15 943.003L213.15 929.667L199.814 929.667ZM266.494 943.003L253.158 943.003L253.158 929.667L239.822 929.667L239.822 916.331L266.494 916.331L266.494 943.003ZM266.494 902.995L253.158 902.995L253.158 889.659L239.822 889.659L239.822 876.323L266.494 876.323L266.494 902.995ZM306.502 796.298L306.502 822.97L293.166 822.97L293.166 809.634L279.83 809.634L279.83 796.298L306.502 796.298ZM266.494 836.306L266.494 862.978L253.158 862.978L253.158 849.642L239.822 849.642L239.822 836.306L266.494 836.306ZM226.486 876.314L226.486 902.986L213.15 902.986L213.15 889.65L199.814 889.65L199.814 876.314L226.486 876.314ZM186.478 876.314L186.478 902.986L173.142 902.986L173.142 889.65L159.806 889.65L159.806 876.314L186.478 876.314ZM146.47 916.322L146.47 942.994L133.134 942.994L133.134 929.658L119.798 929.658L119.798 916.322L146.47 916.322ZM106.462 916.322L106.462 942.994L93.1257 942.994L93.1257 929.658L79.7896 929.658L79.7896 916.322L106.462 916.322ZM66.4536 876.314L66.4536 902.986L53.1176 902.986L53.1176 889.65L39.7816 889.65L39.7816 876.314L66.4536 876.314ZM26.4456 876.314L26.4455 902.986L13.1095 902.986L13.1095 889.65L-0.226494 889.65L-0.226491 876.314L26.4456 876.314ZM-13.5625 916.322L-13.5625 942.994L-26.8986 942.994L-26.8986 929.658L-40.2346 929.658L-40.2346 916.322L-13.5625 916.322ZM-53.5706 916.322L-53.5706 942.994L-66.9066 942.994L-66.9066 929.658L-80.2426 929.658L-80.2426 916.322L-53.5706 916.322ZM586.587 942.994L573.251 942.994L573.251 929.658L559.915 929.658L559.915 916.322L586.587 916.322L586.587 942.994ZM586.587 902.986L573.251 902.986L573.251 889.65L559.915 889.65L559.915 876.314L586.587 876.314L586.587 902.986ZM586.587 836.306L586.587 862.978L573.251 862.978L573.251 849.642L559.915 849.642L559.915 836.306L546.579 836.306L546.579 862.978L533.243 862.978L533.243 849.642L519.907 849.642L519.907 836.306L506.571 836.306L506.571 862.978L493.235 862.978L493.235 849.642L479.899 849.642L479.899 836.306L506.571 836.306L506.571 822.97L493.235 822.97L493.235 809.634L479.899 809.634L479.899 796.298L586.597 796.298L586.597 836.306L586.587 836.306Z" fill="url(#paint2_linear_3424_5300)"/>
</g>
<g clip-path="url(#clip2_3424_5300)">
<path d="M863.555 836.323L863.555 822.986L850.219 822.986L850.219 809.65L836.883 809.65L836.883 796.314L823.547 796.314L823.547 836.323L863.555 836.323Z" fill="url(#paint3_linear_3424_5300)"/>
<path d="M1343.68 796.313L1343.68 782.977L1330.34 782.977L1330.34 769.641L1317.01 769.641L1317.01 756.305L1303.67 756.305L1303.67 782.977L1290.33 782.977L1290.33 769.641L1277 769.641L1277 756.305L1303.67 756.305L1303.67 742.969L1290.33 742.969L1290.33 729.633L1277 729.633L1277 716.297L1263.66 716.297L1263.66 782.977L1250.33 782.977L1250.33 769.641L1236.99 769.641L1236.99 756.305L1223.65 756.305L1223.65 782.977L1210.32 782.977L1210.32 769.641L1196.98 769.641L1196.98 756.305L1223.65 756.305L1223.65 742.969L1210.32 742.969L1210.32 729.633L1196.98 729.633L1196.98 716.297L1183.65 716.297L1183.65 782.977L1170.31 782.977L1170.31 769.641L1156.97 769.641L1156.97 756.305L1143.64 756.305L1143.64 782.977L1130.3 782.977L1130.3 769.641L1116.97 769.641L1116.97 756.305L1103.63 756.305L1103.63 796.313L1143.64 796.313L1143.64 862.993L1130.3 862.993L1130.3 849.657L1116.97 849.657L1116.97 836.321L1103.63 836.321L1103.63 862.993L1090.29 862.993L1090.29 849.657L1076.96 849.657L1076.96 836.321L1063.62 836.321L1063.62 943.019L1050.29 943.019L1050.29 929.683L1036.95 929.683L1036.95 916.347L1023.61 916.347L1023.61 943.019L1010.28 943.019L1010.28 929.683L996.942 929.683L996.943 916.347L1023.61 916.347L1023.61 903.011L1010.28 903.011L1010.28 889.675L996.943 889.675L996.943 876.339L1023.61 876.339L1023.61 863.003L1010.28 863.003L1010.28 849.667L996.943 849.667L996.943 836.331L1063.62 836.331L1063.62 822.995L1050.29 822.995L1050.29 809.659L1036.95 809.659L1036.95 796.323L1063.62 796.323L1063.62 782.987L1050.29 782.987L1050.29 769.651L1036.95 769.651L1036.95 756.315L1103.63 756.315L1103.63 742.979L1090.29 742.979L1090.29 729.642L1076.96 729.642L1076.96 716.306L1063.62 716.306L1063.62 742.978L1050.29 742.978L1050.29 729.642L1036.95 729.642L1036.95 716.306L1023.61 716.306L1023.61 782.987L1010.28 782.987L1010.28 769.651L996.943 769.651L996.943 756.314L983.606 756.314L983.606 822.995L970.27 822.995L970.27 809.659L956.934 809.659L956.934 796.323L943.598 796.323L943.598 863.003L930.262 863.003L930.262 849.667L916.926 849.667L916.926 836.331L903.59 836.331L903.59 863.003L890.254 863.003L890.254 849.667L876.918 849.667L876.918 836.331L863.582 836.331L863.582 903.011L850.246 903.011L850.246 889.675L836.91 889.675L836.91 876.339L823.574 876.339L823.574 903.011L810.238 903.011L810.238 889.675L796.902 889.675L796.902 876.339L823.574 876.339L823.574 863.003L810.238 863.003L810.238 849.667L796.902 849.667L796.902 836.331L783.566 836.331L783.566 863.003L770.23 863.003L770.23 849.667L756.894 849.667L756.894 836.331L743.558 836.331L743.558 863.003L730.222 863.003L730.222 849.667L716.886 849.667L716.886 836.331L743.558 836.331L743.558 822.995L730.222 822.995L730.222 809.659L716.886 809.659L716.886 796.322L703.55 796.322L703.55 822.995L690.214 822.995L690.214 809.659L676.878 809.659L676.878 796.322L703.55 796.322L703.55 782.986L690.214 782.986L690.214 769.65L676.878 769.65L676.878 756.314L743.558 756.314L743.558 796.323L823.574 796.323L823.574 782.987L810.238 782.987L810.238 769.65L796.902 769.65L796.902 756.314L823.574 756.314L823.574 742.978L810.238 742.978L810.238 729.642L796.902 729.642L796.902 716.306L783.566 716.306L783.566 742.978L770.23 742.978L770.23 729.642L756.894 729.642L756.894 716.306L743.558 716.306L743.558 742.978L730.222 742.978L730.222 729.642L716.886 729.642L716.886 716.306L703.55 716.306L703.55 742.978L690.214 742.978L690.214 729.642L676.878 729.642L676.878 716.306L663.542 716.306L663.542 782.986L650.206 782.986L650.206 769.65L636.87 769.65L636.87 756.314L623.496 756.314L623.496 796.322L663.504 796.322L663.504 836.331L703.512 836.331L703.512 903.011L690.176 903.011L690.176 889.675L676.84 889.675L676.84 876.339L663.504 876.339L663.504 903.011L650.168 903.011L650.168 889.675L636.832 889.675L636.832 876.339L663.504 876.339L663.504 863.003L650.168 863.003L650.168 849.667L636.832 849.667L636.832 836.331L623.496 836.331L623.496 1009.71L1343.68 1009.71L1343.68 943.028L1330.34 943.028L1330.34 929.692L1317.01 929.692L1317.01 916.356L1343.68 916.356L1343.68 903.02L1330.34 903.02L1330.34 889.684L1317.01 889.684L1317.01 876.348L1343.68 876.348L1343.68 863.012L1330.34 863.012L1330.34 849.676L1317.01 849.676L1317.01 836.34L1343.68 836.34L1343.68 823.004L1330.34 823.004L1330.34 809.668L1317.01 809.668L1317.01 796.332L1343.68 796.332L1343.68 796.313ZM783.538 756.295L783.538 782.967L770.202 782.967L770.202 769.631L756.866 769.631L756.866 756.295L783.538 756.295ZM1183.64 796.304L1183.64 822.976L1170.3 822.976L1170.3 809.64L1156.97 809.64L1156.97 796.304L1183.64 796.304ZM1116.96 916.337L1143.63 916.337L1143.63 943.009L1130.29 943.009L1130.29 929.673L1116.96 929.673L1116.96 916.337ZM1196.97 929.673L1196.97 916.337L1223.65 916.337L1223.65 943.009L1210.31 943.009L1210.31 929.673L1196.97 929.673ZM1183.64 903.001L1170.3 903.001L1170.3 889.665L1156.97 889.665L1156.97 876.329L1183.64 876.329L1183.64 903.001ZM1183.64 916.337L1183.64 943.009L1170.3 943.009L1170.3 929.673L1156.97 929.673L1156.97 916.337L1183.64 916.337ZM1263.65 943.009L1250.32 943.009L1250.32 929.673L1236.98 929.673L1236.98 916.337L1263.65 916.337L1263.65 943.009ZM1263.65 903.001L1250.32 903.001L1250.32 889.665L1236.98 889.665L1236.98 876.329L1263.65 876.329L1263.65 903.001ZM1223.65 903.001L1210.31 903.001L1210.31 889.665L1196.97 889.665L1196.97 876.329L1223.65 876.329L1223.65 903.001ZM1183.64 836.321L1183.64 862.993L1170.3 862.993L1170.3 849.657L1156.97 849.657L1156.97 836.321L1183.64 836.321ZM1143.63 876.329L1143.63 903.001L1130.29 903.001L1130.29 889.665L1116.96 889.665L1116.96 876.329L1143.63 876.329ZM1103.62 876.329L1103.62 903.001L1090.29 903.001L1090.29 889.665L1076.95 889.665L1076.95 876.329L1103.62 876.329ZM1103.62 916.337L1103.62 943.009L1090.29 943.009L1090.29 929.673L1076.95 929.673L1076.95 916.337L1103.62 916.337ZM716.858 916.337L743.53 916.337L743.53 943.009L730.194 943.009L730.194 929.673L716.858 929.673L716.858 916.337ZM756.866 929.673L756.866 916.337L783.538 916.337L783.538 943.009L770.202 943.009L770.202 929.673L756.866 929.673ZM876.899 916.337L903.571 916.337L903.571 943.009L890.235 943.009L890.235 929.673L876.899 929.673L876.899 916.337ZM916.907 929.673L916.907 916.337L943.579 916.337L943.579 943.009L930.243 943.009L930.243 929.673L916.907 929.673ZM983.587 943.009L970.251 943.009L970.251 929.673L956.915 929.673L956.915 916.337L983.587 916.337L983.587 943.009ZM983.587 903.001L970.251 903.001L970.251 889.665L956.915 889.665L956.915 876.329L983.587 876.329L983.587 903.001ZM1023.6 796.304L1023.6 822.976L1010.26 822.976L1010.26 809.64L996.923 809.64L996.923 796.304L1023.6 796.304ZM983.587 836.312L983.587 862.984L970.251 862.984L970.251 849.648L956.915 849.648L956.915 836.312L983.587 836.312ZM943.579 876.32L943.579 902.992L930.243 902.992L930.243 889.656L916.907 889.656L916.907 876.32L943.579 876.32ZM903.571 876.32L903.571 902.992L890.235 902.992L890.235 889.656L876.899 889.656L876.899 876.32L903.571 876.32ZM863.563 916.328L863.563 943L850.227 943L850.227 929.664L836.891 929.664L836.891 916.328L863.563 916.328ZM823.555 916.328L823.555 943L810.219 943L810.219 929.664L796.883 929.664L796.883 916.328L823.555 916.328ZM783.547 876.32L783.547 902.992L770.211 902.992L770.211 889.656L756.875 889.656L756.875 876.32L783.547 876.32ZM743.539 876.32L743.539 902.992L730.203 902.992L730.203 889.656L716.867 889.656L716.867 876.32L743.539 876.32ZM703.531 916.328L703.531 943L690.195 943L690.195 929.664L676.859 929.664L676.859 916.328L703.531 916.328ZM663.523 916.328L663.523 943L650.187 943L650.187 929.664L636.851 929.664L636.851 916.328L663.523 916.328ZM1303.68 943L1290.34 943L1290.34 929.664L1277.01 929.664L1277.01 916.328L1303.68 916.328L1303.68 943ZM1303.68 902.992L1290.34 902.992L1290.34 889.656L1277.01 889.656L1277.01 876.32L1303.68 876.32L1303.68 902.992ZM1303.68 836.312L1303.68 862.984L1290.34 862.984L1290.34 849.648L1277.01 849.648L1277.01 836.312L1263.67 836.312L1263.67 862.984L1250.34 862.984L1250.34 849.648L1237 849.648L1237 836.312L1223.66 836.312L1223.66 862.984L1210.33 862.984L1210.33 849.648L1196.99 849.648L1196.99 836.312L1223.66 836.312L1223.66 822.976L1210.33 822.976L1210.33 809.64L1196.99 809.64L1196.99 796.304L1303.69 796.304L1303.69 836.312L1303.68 836.312Z" fill="url(#paint4_linear_3424_5300)"/>
</g>
<g clip-path="url(#clip3_3424_5300)">
<path d="M1572.75 837.114L1572.75 823.595L1559.24 823.595L1559.24 810.077L1545.72 810.077L1545.72 796.559L1532.2 796.559L1532.2 837.114L1572.75 837.114Z" fill="url(#paint5_linear_3424_5300)"/>
<path d="M2059.45 796.558L2059.45 783.04L2045.93 783.04L2045.93 769.521L2032.41 769.521L2032.41 756.003L2018.89 756.003L2018.89 783.04L2005.37 783.04L2005.37 769.521L1991.86 769.521L1991.86 756.003L2018.89 756.003L2018.89 742.484L2005.37 742.484L2005.37 728.966L1991.86 728.966L1991.86 715.447L1978.34 715.447L1978.34 783.04L1964.82 783.04L1964.82 769.521L1951.3 769.521L1951.3 756.003L1937.78 756.003L1937.78 783.04L1924.26 783.04L1924.26 769.521L1910.75 769.521L1910.75 756.003L1937.78 756.003L1937.78 742.484L1924.26 742.484L1924.26 728.966L1910.75 728.966L1910.75 715.447L1897.23 715.447L1897.23 783.04L1883.71 783.04L1883.71 769.521L1870.19 769.521L1870.19 756.003L1856.67 756.003L1856.67 783.04L1843.15 783.04L1843.15 769.521L1829.64 769.521L1829.64 756.003L1816.12 756.003L1816.12 796.558L1856.67 796.558L1856.67 864.15L1843.15 864.15L1843.15 850.632L1829.64 850.632L1829.64 837.113L1816.12 837.113L1816.12 864.15L1802.6 864.15L1802.6 850.632L1789.08 850.632L1789.08 837.113L1775.56 837.113L1775.56 945.271L1762.04 945.271L1762.04 931.752L1748.52 931.752L1748.52 918.234L1735.01 918.234L1735.01 945.271L1721.49 945.271L1721.49 931.752L1707.97 931.752L1707.97 918.234L1735.01 918.234L1735.01 904.715L1721.49 904.715L1721.49 891.197L1707.97 891.197L1707.97 877.678L1735.01 877.678L1735.01 864.16L1721.49 864.16L1721.49 850.641L1707.97 850.641L1707.97 837.123L1775.56 837.123L1775.56 823.605L1762.04 823.605L1762.04 810.086L1748.52 810.086L1748.52 796.568L1775.56 796.568L1775.56 783.049L1762.04 783.049L1762.04 769.531L1748.52 769.531L1748.52 756.012L1816.12 756.012L1816.12 742.494L1802.6 742.494L1802.6 728.975L1789.08 728.975L1789.08 715.457L1775.56 715.457L1775.56 742.494L1762.04 742.494L1762.04 728.975L1748.52 728.975L1748.52 715.457L1735.01 715.457L1735.01 783.049L1721.49 783.049L1721.49 769.531L1707.97 769.531L1707.97 756.012L1694.45 756.012L1694.45 823.605L1680.93 823.605L1680.93 810.086L1667.41 810.086L1667.41 796.568L1653.9 796.568L1653.9 864.16L1640.38 864.16L1640.38 850.641L1626.86 850.641L1626.86 837.123L1613.34 837.123L1613.34 864.16L1599.82 864.16L1599.82 850.641L1586.3 850.641L1586.3 837.123L1572.78 837.123L1572.78 904.715L1559.27 904.715L1559.27 891.197L1545.75 891.197L1545.75 877.678L1532.23 877.678L1532.23 904.715L1518.71 904.715L1518.71 891.197L1505.19 891.197L1505.19 877.678L1532.23 877.678L1532.23 864.16L1518.71 864.16L1518.71 850.641L1505.19 850.641L1505.19 837.123L1491.67 837.123L1491.67 864.16L1478.16 864.16L1478.16 850.641L1464.64 850.641L1464.64 837.123L1451.12 837.123L1451.12 864.16L1437.6 864.16L1437.6 850.641L1424.08 850.641L1424.08 837.123L1451.12 837.123L1451.12 823.604L1437.6 823.604L1437.6 810.086L1424.08 810.086L1424.08 796.568L1410.56 796.568L1410.56 823.604L1397.04 823.604L1397.04 810.086L1383.53 810.086L1383.53 796.568L1410.56 796.568L1410.56 783.049L1397.04 783.049L1397.04 769.531L1383.53 769.531L1383.53 756.012L1451.12 756.012L1451.12 796.568L1532.23 796.568L1532.23 783.049L1518.71 783.049L1518.71 769.531L1505.19 769.531L1505.19 756.012L1532.23 756.012L1532.23 742.494L1518.71 742.494L1518.71 728.975L1505.19 728.975L1505.19 715.457L1491.67 715.457L1491.67 742.494L1478.16 742.494L1478.16 728.975L1464.64 728.975L1464.64 715.457L1451.12 715.457L1451.12 742.494L1437.6 742.494L1437.6 728.975L1424.08 728.975L1424.08 715.457L1410.56 715.457L1410.56 742.494L1397.04 742.494L1397.04 728.975L1383.53 728.975L1383.53 715.457L1370.01 715.457L1370.01 783.049L1356.49 783.049L1356.49 769.531L1342.97 769.531L1342.97 756.012L1329.41 756.012L1329.41 796.568L1369.97 796.568L1369.97 837.123L1410.52 837.123L1410.52 904.715L1397.01 904.715L1397.01 891.197L1383.49 891.197L1383.49 877.678L1369.97 877.678L1369.97 904.715L1356.45 904.715L1356.45 891.197L1342.93 891.197L1342.93 877.678L1369.97 877.678L1369.97 864.16L1356.45 864.16L1356.45 850.641L1342.93 850.641L1342.93 837.123L1329.41 837.123L1329.41 1012.87L2059.45 1012.87L2059.45 945.28L2045.93 945.28L2045.93 931.762L2032.41 931.762L2032.41 918.243L2059.45 918.243L2059.45 904.725L2045.93 904.725L2045.93 891.206L2032.41 891.206L2032.41 877.688L2059.45 877.688L2059.45 864.17L2045.93 864.17L2045.93 850.651L2032.41 850.651L2032.41 837.133L2059.45 837.133L2059.45 823.614L2045.93 823.614L2045.93 810.096L2032.41 810.096L2032.41 796.577L2059.45 796.577L2059.45 796.558ZM1491.65 755.993L1491.65 783.03L1478.13 783.03L1478.13 769.511L1464.61 769.511L1464.61 755.993L1491.65 755.993ZM1897.22 796.548L1897.22 823.585L1883.7 823.585L1883.7 810.067L1870.18 810.067L1870.18 796.548L1897.22 796.548ZM1829.63 918.224L1856.66 918.224L1856.66 945.261L1843.14 945.261L1843.14 931.742L1829.63 931.742L1829.63 918.224ZM1910.74 931.743L1910.74 918.224L1937.77 918.224L1937.77 945.261L1924.25 945.261L1924.25 931.743L1910.74 931.743ZM1897.22 904.706L1883.7 904.706L1883.7 891.187L1870.18 891.187L1870.18 877.669L1897.22 877.669L1897.22 904.706ZM1897.22 918.224L1897.22 945.261L1883.7 945.261L1883.7 931.742L1870.18 931.742L1870.18 918.224L1897.22 918.224ZM1978.33 945.261L1964.81 945.261L1964.81 931.743L1951.29 931.743L1951.29 918.224L1978.33 918.224L1978.33 945.261ZM1978.33 904.706L1964.81 904.706L1964.81 891.187L1951.29 891.187L1951.29 877.669L1978.33 877.669L1978.33 904.706ZM1937.77 904.706L1924.25 904.706L1924.25 891.187L1910.74 891.187L1910.74 877.669L1937.77 877.669L1937.77 904.706ZM1897.22 837.113L1897.22 864.15L1883.7 864.15L1883.7 850.632L1870.18 850.632L1870.18 837.113L1897.22 837.113ZM1856.66 877.669L1856.66 904.706L1843.14 904.706L1843.14 891.187L1829.63 891.187L1829.63 877.669L1856.66 877.669ZM1816.11 877.669L1816.11 904.706L1802.59 904.706L1802.59 891.187L1789.07 891.187L1789.07 877.669L1816.11 877.669ZM1816.11 918.224L1816.11 945.261L1802.59 945.261L1802.59 931.742L1789.07 931.742L1789.07 918.224L1816.11 918.224ZM1424.05 918.224L1451.09 918.224L1451.09 945.261L1437.57 945.261L1437.57 931.742L1424.05 931.742L1424.05 918.224ZM1464.61 931.742L1464.61 918.224L1491.65 918.224L1491.65 945.261L1478.13 945.261L1478.13 931.742L1464.61 931.742ZM1586.28 918.224L1613.32 918.224L1613.32 945.261L1599.8 945.261L1599.8 931.742L1586.28 931.742L1586.28 918.224ZM1626.84 931.742L1626.84 918.224L1653.88 918.224L1653.88 945.261L1640.36 945.261L1640.36 931.742L1626.84 931.742ZM1694.43 945.261L1680.91 945.261L1680.91 931.742L1667.39 931.742L1667.39 918.224L1694.43 918.224L1694.43 945.261ZM1694.43 904.706L1680.91 904.706L1680.91 891.187L1667.39 891.187L1667.39 877.669L1694.43 877.669L1694.43 904.706ZM1734.99 796.548L1734.99 823.585L1721.47 823.585L1721.47 810.067L1707.95 810.067L1707.95 796.548L1734.99 796.548ZM1694.43 837.104L1694.43 864.141L1680.91 864.141L1680.91 850.622L1667.39 850.622L1667.39 837.104L1694.43 837.104ZM1653.88 877.659L1653.88 904.696L1640.36 904.696L1640.36 891.177L1626.84 891.177L1626.84 877.659L1653.88 877.659ZM1613.32 877.659L1613.32 904.696L1599.8 904.696L1599.8 891.177L1586.28 891.177L1586.28 877.659L1613.32 877.659ZM1572.77 918.214L1572.77 945.251L1559.25 945.251L1559.25 931.733L1545.73 931.733L1545.73 918.214L1572.77 918.214ZM1532.21 918.214L1532.21 945.251L1518.69 945.251L1518.69 931.733L1505.17 931.733L1505.17 918.214L1532.21 918.214ZM1491.65 877.659L1491.65 904.696L1478.14 904.696L1478.14 891.177L1464.62 891.177L1464.62 877.659L1491.65 877.659ZM1451.1 877.659L1451.1 904.696L1437.58 904.696L1437.58 891.177L1424.06 891.177L1424.06 877.659L1451.1 877.659ZM1410.54 918.214L1410.54 945.251L1397.03 945.251L1397.03 931.733L1383.51 931.733L1383.51 918.214L1410.54 918.214ZM1369.99 918.214L1369.99 945.251L1356.47 945.251L1356.47 931.733L1342.95 931.733L1342.95 918.214L1369.99 918.214ZM2018.9 945.251L2005.38 945.251L2005.38 931.733L1991.87 931.733L1991.87 918.214L2018.9 918.214L2018.9 945.251ZM2018.9 904.696L2005.38 904.696L2005.38 891.178L1991.87 891.178L1991.87 877.659L2018.9 877.659L2018.9 904.696ZM2018.9 837.104L2018.9 864.141L2005.38 864.141L2005.38 850.622L1991.87 850.622L1991.87 837.104L1978.35 837.104L1978.35 864.141L1964.83 864.141L1964.83 850.622L1951.31 850.622L1951.31 837.104L1937.79 837.104L1937.79 864.141L1924.27 864.141L1924.27 850.622L1910.76 850.622L1910.76 837.104L1937.79 837.104L1937.79 823.585L1924.27 823.585L1924.27 810.067L1910.76 810.067L1910.76 796.548L2018.91 796.548L2018.91 837.104L2018.9 837.104Z" fill="url(#paint6_linear_3424_5300)"/>
</g>
</g>
<defs>
<linearGradient id="paint0_linear_3424_5300" x1="185.082" y1="676.275" x2="185.082" y2="756.292" gradientUnits="userSpaceOnUse">
<stop stop-color="#A77DF0"/>
<stop offset="1" stop-color="white"/>
</linearGradient>
<linearGradient id="paint1_linear_3424_5300" x1="125.063" y1="796.307" x2="125.063" y2="836.315" gradientUnits="userSpaceOnUse">
<stop stop-color="#A77DF0"/>
<stop offset="1" stop-color="white"/>
</linearGradient>
<linearGradient id="paint2_linear_3424_5300" x1="266.494" y1="716.291" x2="266.317" y2="831.13" gradientUnits="userSpaceOnUse">
<stop stop-color="#AB7DF4"/>
<stop offset="1" stop-color="white"/>
</linearGradient>
<linearGradient id="paint3_linear_3424_5300" x1="843.551" y1="796.314" x2="843.551" y2="836.323" gradientUnits="userSpaceOnUse">
<stop stop-color="#A77DF0"/>
<stop offset="1" stop-color="white"/>
</linearGradient>
<linearGradient id="paint4_linear_3424_5300" x1="983.587" y1="716.297" x2="983.587" y2="833.922" gradientUnits="userSpaceOnUse">
<stop stop-color="#AB7DF4"/>
<stop offset="1" stop-color="white"/>
</linearGradient>
<linearGradient id="paint5_linear_3424_5300" x1="1552.48" y1="796.559" x2="1552.48" y2="837.114" gradientUnits="userSpaceOnUse">
<stop stop-color="#A77DF0"/>
<stop offset="1" stop-color="white"/>
</linearGradient>
<linearGradient id="paint6_linear_3424_5300" x1="1694.43" y1="715.447" x2="1694.43" y2="831.131" gradientUnits="userSpaceOnUse">
<stop stop-color="#AB7DF4"/>
<stop offset="1" stop-color="white"/>
</linearGradient>
<clipPath id="clip0_3424_5300">
<rect width="1728" height="836" fill="white"/>
</clipPath>
<clipPath id="clip1_3424_5300">
<rect width="625" height="240" fill="white" transform="translate(0 676)"/>
</clipPath>
<clipPath id="clip2_3424_5300">
<rect width="707" height="240" fill="white" transform="translate(623 676)"/>
</clipPath>
<clipPath id="clip3_3424_5300">
<rect width="399" height="241" fill="white" transform="translate(1329 675)"/>
</clipPath>
<clipPath id="clip4_3424_5300">
<rect width="559" height="138" fill="white" transform="translate(267 120)"/>
</clipPath>
<clipPath id="clip5_3424_5300">
<rect width="16" height="18" fill="white" transform="translate(267 278)"/>
</clipPath>
<clipPath id="clip6_3424_5300">
<rect width="20" height="18" fill="white" transform="translate(425 278)"/>
</clipPath>
<clipPath id="clip7_3424_5300">
<rect width="20" height="20" fill="white" transform="translate(575 277)"/>
</clipPath>
</defs>
</svg>
