<svg id="skillwill_logo" data-name="skillwill logo" xmlns="http://www.w3.org/2000/svg" width="180" height="22.001" viewBox="0 0 180 22.001">
  <path id="Path_32444" data-name="Path 32444" d="M11,16.506V11H5.5V5.5H0V22H16.489V16.5h-5.5Z"/>
  <path id="Path_32445" data-name="Path 32445" d="M11,0V5.505h5.5V11.01H22V0Z"/>
  <path id="Path_32446" data-name="Path 32446" d="M122.956.039V14.415l4.148,3.79V.039Z"/>
  <path id="Path_32447" data-name="Path 32447" d="M132.38.02V18.208H117.841V.041h-4.159V17.613c1.592,1.444,3.174,2.9,4.766,4.343,6.034,0,12.068.021,18.1.032V.02Z"/>
  <path id="Path_32448" data-name="Path 32448" d="M74.637,21.988H70.468V.02h4.169Z"/>
  <path id="Path_32449" data-name="Path 32449" d="M144,21.968h-4.169V0H144Z"/>
  <path id="Path_32450" data-name="Path 32450" d="M92.752,18.23H82.067V.074H77.909V17.647c1.592,1.444,3.174,2.9,4.766,4.343H92.752Z"/>
  <path id="Path_32451" data-name="Path 32451" d="M110.641,18.23H99.956V.074H95.8V17.647c1.592,1.444,3.174,2.9,4.767,4.343h10.077Z"/>
  <path id="Path_32452" data-name="Path 32452" d="M162.118,18.219H151.434V.063h-4.159V17.635c1.592,1.444,3.174,2.9,4.766,4.343h10.077Z"/>
  <path id="Path_32453" data-name="Path 32453" d="M180,18.219H169.315V.063h-4.159V17.635c1.592,1.444,3.174,2.9,4.766,4.343H180Z"/>
  <path id="Path_32454" data-name="Path 32454" d="M45.885,3.675V.086H35.734C34.153,1.53,32.571,2.963,31,4.407V12.87H41.978v5.362H31V22H41.1c1.592-1.455,3.195-2.909,4.787-4.364V9.111H34.907V3.675Z"/>
  <path id="Path_32455" data-name="Path 32455" d="M67.181.02H63.273v9.1l3.907-4.406Z"/>
  <path id="Path_32456" data-name="Path 32456" d="M53.071,12.889h10.2v9.1h3.907V12.666L63.274,9.109H56.423Z"/>
  <path id="Path_32457" data-name="Path 32457" d="M53.069,12.888V.02H49.162V21.988h3.907Z"/>
</svg>
