<svg width="180" height="22" viewBox="0 0 180 22" fill="none" xmlns="http://www.w3.org/2000/svg">
<path d="M10.9995 16.5055V11.0003H5.49976V5.49512H0V22H16.4886V16.4948H10.9889L10.9995 16.5055Z" fill="#AB7DF4"/>
<path d="M11 0V5.50518H16.4998V11.0104H21.9995V0H11Z" fill="#AB7DF4"/>
<path d="M122.957 0.0410156V14.4174L127.105 18.2079V0.0410156H122.957Z" fill="white"/>
<path d="M132.382 0.0205078V18.2087H117.842V0.0417433H113.684V17.6141C115.276 19.0581 116.858 20.5127 118.45 21.9567C124.484 21.9567 130.517 21.978 136.551 21.9886V0.0205078H132.382Z" fill="white"/>
<path d="M74.6379 21.9886H70.4688V0.0205078H74.6379V21.9886Z" fill="white"/>
<path d="M143.997 21.9681H139.828V0H143.997V21.9681Z" fill="white"/>
<path d="M92.7535 18.2305H82.0688V0.0742188H77.9102V17.6466C79.5024 19.0906 81.0841 20.5452 82.6764 21.9892H92.7535V18.2305Z" fill="white"/>
<path d="M110.64 18.2305H99.9555V0.0742188H95.7969V17.6466C97.3891 19.0906 98.9709 20.5452 100.563 21.9892H110.64V18.2305Z" fill="white"/>
<path d="M162.121 18.2198H151.436V0.0634766H147.277V17.6358C148.87 19.0798 150.451 20.5344 152.044 21.9785H162.121V18.2198Z" fill="white"/>
<path d="M180 18.2198H169.315V0.0634766H165.156V17.6358C166.748 19.0798 168.33 20.5344 169.922 21.9785H180V18.2198Z" fill="white"/>
<path d="M45.8853 3.67375V0.0849609H35.7348C34.153 1.52897 32.5713 2.96236 31 4.40637V12.8687C34.6558 12.8687 38.3117 12.8687 41.978 12.8687V18.2306H31V21.9999H41.0981C42.6903 20.5453 44.293 19.0907 45.8853 17.6361V9.11002H34.9072V3.67375H45.8853Z" fill="white"/>
<path d="M67.1807 0.0205078H63.2734V9.1199C64.5724 7.65465 65.8818 6.17879 67.1807 4.71354C67.1807 3.15274 67.1807 1.59193 67.1807 0.0205078Z" fill="white"/>
<path d="M53.0703 12.8893H63.2732V21.9887H67.1804C67.1804 18.8777 67.1804 15.7773 67.1804 12.6663L63.2732 9.10938C60.9896 9.10938 58.706 9.10938 56.4224 9.10938C55.3015 10.3729 54.1912 11.6258 53.0703 12.8893Z" fill="white"/>
<path d="M53.0674 12.8892V0.0205078H49.1602C49.1602 7.34674 49.1602 14.673 49.1602 21.9886H53.0674V12.8892Z" fill="white"/>
</svg>
